# xmcd
#
# Track frame offsets: 
#        187
#        13005
#        24567
#        43007
#        54162
#        70115
#        85877
#        99730
#        112107
#        125912
#        142387
#
# Disc length: 2171 seconds
#
# Revision: 3
# Processed by: cddbd v1.5.2PL0 Copyright (c) Steve Scherf et al.
# Submitted via: ExactAudioCopy v0.95b3
#
DISCID=9f08790b
DTITLE=Merle Haggard - Back To The Barrooms
DYEAR=1900
DGENRE=Country
TTITLE0=Misery And Gin
TTITLE1=Back To The Barrooms Again
TTITLE2=Make-Up And Faded Blue Jeans
TTITLE3=Ever-Changing Woman
TTITLE4=Easy Come, Easy Go
TTITLE5=I Don't Want To Sober Up Tonight
TTITLE6=Can't Break The Habit
TTITLE7=Our Paths May Never Cross
TTITLE8=I Don't Have Any More Love Songs
TTITLE9=Leonard
TTITLE10=I Think I'll Just Stay Here And Drink
EXTD=
EXTT0=
EXTT1=
EXTT2=
EXTT3=
EXTT4=
EXTT5=
EXTT6=
EXTT7=
EXTT8=
EXTT9=
EXTT10=
PLAYORDER=
